<?xml version="1.0" encoding="iso-8859-1"?>
<!-- Generator: Adobe Illustrator 19.0.0, SVG Export Plug-In . SVG Version: 6.00 Build 0)  -->
<svg xmlns="http://www.w3.org/2000/svg" xmlns:xlink="http://www.w3.org/1999/xlink" version="1.1" id="Layer_1" x="0px" y="0px" viewBox="0 0 360 360" style="enable-background:new 0 0 360 360;" xml:space="preserve" width="512px" height="512px">
<g id="XMLID_232_">
	<g id="XMLID_233_">
		<circle id="XMLID_235_" cx="164.999" cy="120.012" r="45" fill="#F59C64"/>
	</g>
	<g id="XMLID_236_">
		<path id="XMLID_237_" d="M165,165.013c-38.659,0-70,31.337-70,70h139.999C234.999,196.35,203.658,165.013,165,165.013z" fill="#F59C64"/>
	</g>
	<g id="XMLID_238_">
		<path id="XMLID_239_" d="M355.606,334.381l-63.854-63.855C315.619,241.903,330,205.107,330,165.013c0-90.981-74.019-165-165-165    S0,74.031,0,165.013s74.019,165,165,165c40.107,0,76.914-14.391,105.541-38.271l63.853,63.853    c2.929,2.929,6.768,4.393,10.606,4.393s7.678-1.464,10.606-4.393C361.465,349.736,361.465,340.239,355.606,334.381z M30,165.013    c0-74.439,60.561-135,135-135s135,60.561,135,135c0,74.439-60.561,135-135,135S30,239.452,30,165.013z" fill="#F59C64"/>
	</g>
</g>
<g>
</g>
<g>
</g>
<g>
</g>
<g>
</g>
<g>
</g>
<g>
</g>
<g>
</g>
<g>
</g>
<g>
</g>
<g>
</g>
<g>
</g>
<g>
</g>
<g>
</g>
<g>
</g>
<g>
</g>
</svg>
