<?xml version="1.0" encoding="iso-8859-1"?>
<!-- Generator: Adobe Illustrator 16.0.0, SVG Export Plug-In . SVG Version: 6.00 Build 0)  -->
<!DOCTYPE svg PUBLIC "-//W3C//DTD SVG 1.1//EN" "http://www.w3.org/Graphics/SVG/1.1/DTD/svg11.dtd">
<svg xmlns="http://www.w3.org/2000/svg" xmlns:xlink="http://www.w3.org/1999/xlink" version="1.1" id="Capa_1" x="0px" y="0px" width="512px" height="512px" viewBox="0 0 45.735 45.736" style="enable-background:new 0 0 45.735 45.736;" xml:space="preserve">
<g>
	<g>
		<g>
			<path d="M21.221,11.228H10.023c-1.625,1.796-2.604,4.04-2.818,6.465h9.688c0.82,0,1.486,0.675,1.486,1.497     c0,0.821-0.666,1.496-1.486,1.496H7.33c0.183,1.044,0.51,2.049,0.971,2.993h8.592c0.82,0,1.486,0.675,1.486,1.496     c0,0.82-0.666,1.496-1.486,1.496h-6.467c0.019,0.019,0.037,0.039,0.055,0.058c2.143,2.142,4.971,3.322,8,3.322     c2.078,0,4.11-0.556,5.787-1.595V14.267C24.268,12.56,22.927,11.228,21.221,11.228z" fill="#F59C64"/>
		</g>
		<path d="M44.485,38.018l-9.998-9.998c1.575-2.754,2.414-5.882,2.414-9.14c0-4.929-1.918-9.563-5.404-13.047    c-3.483-3.485-8.117-5.404-13.046-5.404S8.888,2.348,5.404,5.835C1.919,9.318,0,13.952,0,18.881c0,4.929,1.919,9.562,5.404,13.046    c3.484,3.486,8.118,5.404,13.047,5.404c3.685,0,7.203-1.072,10.201-3.069l9.793,9.794c0.834,0.833,1.926,1.25,3.02,1.25    c1.092,0,2.186-0.417,3.02-1.25C46.152,42.389,46.152,39.686,44.485,38.018z M28.58,29.009c-2.706,2.706-6.303,4.195-10.129,4.195    s-7.423-1.489-10.128-4.195c-2.706-2.705-4.195-6.302-4.195-10.128c0-3.826,1.488-7.424,4.194-10.129    c2.705-2.705,6.303-4.195,10.128-4.195c3.827,0,7.424,1.489,10.129,4.195C34.164,14.337,34.164,23.425,28.58,29.009z" fill="#F59C64"/>
	</g>
</g>
<g>
</g>
<g>
</g>
<g>
</g>
<g>
</g>
<g>
</g>
<g>
</g>
<g>
</g>
<g>
</g>
<g>
</g>
<g>
</g>
<g>
</g>
<g>
</g>
<g>
</g>
<g>
</g>
<g>
</g>
</svg>
