<?xml version="1.0" encoding="iso-8859-1"?>
<!-- Generator: Adobe Illustrator 19.0.0, SVG Export Plug-In . SVG Version: 6.00 Build 0)  -->
<svg xmlns="http://www.w3.org/2000/svg" xmlns:xlink="http://www.w3.org/1999/xlink" version="1.1" id="Capa_1" x="0px" y="0px" viewBox="0 0 489.3 489.3" style="enable-background:new 0 0 489.3 489.3;" xml:space="preserve" width="512px" height="512px">
<g>
	<g>
		<g>
			<path d="M167,135.3c-0.4,4.6-0.7,9.2-0.7,13.9c0,10.8,1.2,21.4,3.5,31.9H77.4v223.3h117.2v2.3c0,7,5.7,12.7,12.7,12.7h64.3     c7,0,12.7-5.7,12.7-12.7v-2.3h117.3v-98.8c16.4-4.6,31.8-11.3,45.8-19.7v118.5h1.6h29.9v22.8c0,20.5-16.6,37.1-37.1,37.1h-35.5     H72.6H37.1C16.6,464.3,0,447.7,0,427.2v-22.8h29.9h1.6V168.8c0-18.5,15-33.6,33.6-33.6H167V135.3z M236.6,227.9     c-19.7-21.4-31.6-48.6-31.6-78.3C205,80.8,268.6,25,347.1,25s142.2,55.8,142.2,124.6s-63.6,124.6-142.1,124.6     c-28.5,0-55-7.4-77.2-20c-20,12-41.7,11.6-54.3,9.8c-3.6-0.5-4.5-5.1-1.5-7.1C226.3,249,233,237.8,236.6,227.9z M290.6,140.3     c0,8.6,3.4,16.6,9.4,22.7l43.7,43.7c0.9,0.9,2.2,1.4,3.5,1.4s2.5-0.5,3.5-1.4l43.7-43.7c6.1-6.1,9.4-14.1,9.4-22.7     c0-8.6-3.3-16.6-9.4-22.7c-6.1-6.1-14.1-9.4-22.7-9.4c-8.6,0-16.6,3.3-22.7,9.4l-1.8,1.8l-1.8-1.8c-6.1-6.1-14.2-9.4-22.7-9.4     c-8.6,0-16.6,3.3-22.7,9.4C293.9,123.6,290.6,131.7,290.6,140.3z" fill="#F59C64"/>
		</g>
	</g>
</g>
<g>
</g>
<g>
</g>
<g>
</g>
<g>
</g>
<g>
</g>
<g>
</g>
<g>
</g>
<g>
</g>
<g>
</g>
<g>
</g>
<g>
</g>
<g>
</g>
<g>
</g>
<g>
</g>
<g>
</g>
</svg>
