<?xml version="1.0" encoding="UTF-8"?>
<svg width="358px" height="506px" viewBox="0 0 358 506" version="1.1" xmlns="http://www.w3.org/2000/svg" xmlns:xlink="http://www.w3.org/1999/xlink">
    <!-- Generator: Sketch 40 (33762) - http://www.bohemiancoding.com/sketch -->
    <title>Group</title>
    <desc>Created with Sketch.</desc>
    <defs></defs>
    <g id="Page-1" stroke="none" stroke-width="1" fill="none" fill-rule="evenodd">
        <g id="Logo-jérôme-01-(1)" transform="translate(-4793.000000, -3052.000000)">
            <g id="Calque_2" transform="translate(1877.000000, 0.000000)">
                <g id="Group" transform="translate(2916.000000, 3052.000000)">
                    <path d="M343.858,202.487 C374.857,181.487 342.858,185.487 331.858,163.487 C322.858,146.487 327.858,127.487 323.858,109.487 C313.857,69.487 278.858,20.487 237.858,7.487 C150.857,-19.513 49.858,29.487 27.858,120.487 C10.857,193.487 68.713,289.625 143.883,337.905 L230.857,487.487 C263.381,431.619 237.381,426.375 260.047,372.286 C269.036,350.834 298.857,335.487 320.858,325.487 C344.857,314.487 354.857,316.487 344.857,287.487 C341.857,277.487 340.212,274.875 339.212,265.875 C338.212,257.875 340.858,255.487 337.858,250.487 C335.858,247.487 328.858,253.487 326.857,247.487 C325.858,242.487 335.858,238.487 336.858,234.487 C337.857,228.487 331.858,227.487 331.857,222.487 C331.858,209.486 331.857,210.487 343.858,202.487 L343.858,202.487 Z M299.371,157.386 C295.071,166.473 288.037,173.887 278.267,176.972 C269.009,179.896 259.262,179.593 249.712,178.624 C246.536,178.302 244.945,169.895 248.152,170.221 C256.708,171.089 265.888,171.744 274.218,169.114 C283.337,166.234 289.447,160.01 293.493,151.46 C294.873,148.547 300.742,154.489 299.371,157.386 L299.371,157.386 Z" id="Shape" fill="#8CCEB0"></path>
                    <path d="M106.714,320.958 C59.714,305.958 19.542,326.381 3.859,373.487 C-5.954,402.958 0.582,452.244 52.145,461.375 C76.145,465.625 69.717,491.588 74.895,493.625 C82.236,496.513 85.896,493.208 94.896,483.208 C104.897,482.208 109.244,495.343 115.312,497.125 C120.662,498.696 123.124,485.204 126.645,486.125 C130.708,487.188 127.512,500.284 130.512,500.284 C136.098,501.68 140.32,493.959 141.645,493.959 C149.264,493.959 161.418,510.498 170.395,503.626 C184.01,493.203 177.051,472.016 190.046,464.459 C200.364,458.459 218.38,451.959 230.858,487.488 C229.38,381.625 149.713,334.958 106.714,320.958 L106.714,320.958 Z M74.656,457.533 C71.723,458.774 65.686,453.598 68.647,452.345 C79.066,447.938 83.026,436.095 81.82,425.504 C81.456,422.303 89.945,423.209 90.305,426.374 C91.688,438.512 86.522,452.514 74.656,457.533 L74.656,457.533 Z" id="Shape" fill="#B56969"></path>
                </g>
            </g>
        </g>
    </g>
</svg>