<?xml version="1.0" encoding="UTF-8"?>
<svg width="358px" height="506px" viewBox="0 0 358 506" version="1.1" xmlns="http://www.w3.org/2000/svg" xmlns:xlink="http://www.w3.org/1999/xlink">
    <!-- Generator: Sketch 40 (33762) - http://www.bohemiancoding.com/sketch -->
    <title>Group</title>
    <desc>Created with Sketch.</desc>
    <defs></defs>
    <g id="Page-1" stroke="none" stroke-width="1" fill="none" fill-rule="evenodd">
        <g id="Logo-jérôme-01-(1)" transform="translate(-5654.000000, -3052.000000)">
            <g id="Calque_2" transform="translate(1877.000000, 0.000000)">
                <g id="Group" transform="translate(3777.000000, 3052.000000)">
                    <path d="M344.783,202.487 C375.782,181.487 343.783,185.487 332.783,163.487 C323.783,146.487 328.783,127.487 324.783,109.487 C314.782,69.487 279.783,20.487 238.783,7.487 C151.782,-19.513 50.783,29.487 28.783,120.487 C11.782,193.487 69.638,289.625 144.808,337.905 L231.782,487.487 C264.306,431.619 238.306,426.375 260.972,372.286 C269.961,350.834 299.782,335.487 321.783,325.487 C345.782,314.487 355.782,316.487 345.782,287.487 C342.782,277.487 341.137,274.875 340.137,265.875 C339.137,257.875 341.783,255.487 338.783,250.487 C336.783,247.487 329.783,253.487 327.782,247.487 C326.783,242.487 336.783,238.487 337.783,234.487 C338.782,228.487 332.783,227.487 332.782,222.487 C332.783,209.486 332.782,210.487 344.783,202.487 L344.783,202.487 Z M300.296,157.386 C295.996,166.473 288.962,173.887 279.192,176.972 C269.934,179.896 260.187,179.593 250.637,178.624 C247.461,178.302 247.43,173.299 250.637,173.624 C259.193,174.492 268.373,175.147 276.703,172.517 C285.822,169.637 291.932,163.413 295.978,154.863 C297.357,151.95 301.667,154.489 300.296,157.386 L300.296,157.386 Z" id="Shape" fill="#F59C64"></path>
                    <path d="M107.639,320.958 C60.639,305.958 20.467,326.381 4.784,373.487 C-5.029,402.958 1.507,452.244 53.07,461.375 C77.07,465.625 70.642,491.588 75.82,493.625 C83.161,496.513 86.821,493.208 95.821,483.208 C105.822,482.208 110.169,495.343 116.237,497.125 C121.587,498.696 124.049,485.204 127.57,486.125 C131.633,487.188 128.437,500.284 131.437,500.284 C137.023,501.68 141.245,493.959 142.57,493.959 C150.189,493.959 162.343,510.498 171.32,503.626 C184.935,493.203 177.976,472.016 190.971,464.459 C201.289,458.459 219.305,451.959 231.783,487.488 C230.305,381.625 150.638,334.958 107.639,320.958 L107.639,320.958 Z M75.581,457.533 C72.648,458.774 70.097,454.468 73.058,453.216 C83.477,448.809 87.437,436.966 86.231,426.375 C85.867,423.174 90.871,423.209 91.231,426.375 C92.612,438.512 87.447,452.514 75.581,457.533 L75.581,457.533 Z" id="Shape" fill="#8CCEB0"></path>
                </g>
            </g>
        </g>
    </g>
</svg>