<?xml version="1.0" encoding="UTF-8"?>
<svg width="512px" height="512px" viewBox="0 0 512 512" version="1.1" xmlns="http://www.w3.org/2000/svg" xmlns:xlink="http://www.w3.org/1999/xlink">
    <!-- Generator: Sketch 41 (35326) - http://www.bohemiancoding.com/sketch -->
    <title>mic-vocal-form</title>
    <desc>Created with Sketch.</desc>
    <defs></defs>
    <g id="Page-1" stroke="none" stroke-width="1" fill="none" fill-rule="evenodd">
        <g id="technology">
            <circle id="background_40_" fill="#B56969" cx="256" cy="256" r="256"></circle>
            <polygon id="Shape" fill="#172229" points="165.499 276.156 165.325 264 196.155 264"></polygon>
            <polygon id="Shape" fill="#172229" points="347.108 276.156 347.28 264 316.45 264"></polygon>
            <path d="M159.28,264 C159.28,264 159.989,287.203 163.341,298.496 C167.291,311.799 174.278,324.019 183.318,334.5 C201.565,355.651 229.035,367.637 256.852,367.508 C284.443,367.379 311.215,354.778 329.198,333.933 C338.085,323.632 344.672,311.491 348.659,298.491 C352.106,287.251 352.719,276.001 352.719,264.001 C352.719,257.001 340.629,257.001 340.629,264.001 C340.629,276.001 339.941,286.021 336.518,296.829 C332.653,309.034 325.754,320.231 316.921,329.453 C298.356,348.841 271.606,357.841 245.084,354.769 C223.098,352.222 202.182,339.821 188.819,322.286 C181.979,313.307 177.031,303.039 174.114,292.148 C171.637,282.881 171.37,274 171.37,264 C171.37,257 159.28,257 159.28,264 C159.28,264 159.28,257 159.28,264 Z" id="Shape" fill="#334D5C"></path>
            <ellipse id="Oval" fill="#334D5C" cx="256" cy="409.543" rx="43.195" ry="16.021"></ellipse>
            <ellipse id="Oval" fill="#334D5C" cx="256" cy="409.543" rx="43.195" ry="16.021"></ellipse>
            <polygon id="Shape" fill="#334D5C" points="256 357.858 231.909 396.253 256 409.845 280.092 396.253"></polygon>
            <path d="M248.856,375.979 C244.674,383.747 240.493,391.518 236.311,399.288 C234.465,402.72 239.684,405.773 241.532,402.34 C245.714,394.57 249.895,386.8 254.075,379.03 C255.923,375.599 250.705,372.547 248.856,375.979 L248.856,375.979 Z" id="Shape" fill="#5F8FAB"></path>
            <path d="M186,244 L186,267.384 C186,308.677 217.67,342.464 255.5,342.464 C293.33,342.464 325,308.677 325,267.384 L325,244 L186,244 Z" id="Shape" fill="#334D5C"></path>
            <rect id="Rectangle-path" fill="#172229" x="186" y="244" width="139" height="17"></rect>
            <path d="M255.5,86.437 C217.67,86.437 186,120.224 186,161.519 L186,215.578 L186,244 L325,244 L325,215.577 L325,161.518 C325,120.224 293.33,86.437 255.5,86.437 Z" id="Shape" fill="#D8DBDB"></path>
            <path d="M212,153 L187.672,153 C187.288,157 186,158.212 186,161.519 L186,170 L212,170 C222,170 222,153 212,153 Z" id="Shape" fill="#9EA1A1"></path>
            <path d="M212,182 L186,182 L186,201 L212,201 C222,201 222,182 212,182 Z" id="Shape" fill="#9EA1A1"></path>
            <path d="M212,213 L186,213 L186,215.577 L186,232 L212,232 C222,232 222,213 212,213 Z" id="Shape" fill="#9EA1A1"></path>
            <path d="M299,153 L324.068,153 C324.452,157 325,158.212 325,161.519 L325,170 L299,170 C289,170 289,153 299,153 Z" id="Shape" fill="#9EA1A1"></path>
            <path d="M299,182 L325,182 L325,201 L299,201 C289,201 289,182 299,182 Z" id="Shape" fill="#9EA1A1"></path>
            <path d="M299,213 L325,213 L325,215.577 L325,232 L299,232 C289,232 289,213 299,213 Z" id="Shape" fill="#9EA1A1"></path>
            <path d="M196.37,287.227 C198.034,294.597 201.821,301.857 206.092,308.014 C215.912,322.184 230.755,331.659 247.743,334.672 C250.985,335.247 254.245,333.845 255.179,330.45 C255.991,327.5 254.205,323.59 250.958,323.014 C242.851,321.575 235.52,318.814 228.728,314.161 C226.356,312.54 223.876,310.339 221.519,307.915 C219.042,305.37 217.856,303.825 216.219,301.462 C214.687,299.252 213.325,296.927 212.083,294.543 C211.548,293.517 211.052,292.47 210.575,291.417 C210.415,291.068 209.683,289.33 210.412,291.073 C210.228,290.635 210.056,290.193 209.882,289.752 C209.155,287.89 208.47,285.968 208.028,284.014 C206.311,276.41 194.657,279.635 196.37,287.227 L196.37,287.227 Z" id="Shape" fill="#5F8FAB"></path>
            <path d="M256,86.437 L256,342.464 C294,342.464 325,308.677 325,267.384 L325,161.519 C325,120.224 294,86.437 256,86.437 Z" id="Shape" fill="#676969" opacity="0.4"></path>
        </g>
    </g>
</svg>