<?xml version="1.0" encoding="iso-8859-1"?>
<!-- Generator: Adobe Illustrator 19.0.0, SVG Export Plug-In . SVG Version: 6.00 Build 0)  -->
<svg xmlns="http://www.w3.org/2000/svg" xmlns:xlink="http://www.w3.org/1999/xlink" version="1.1" id="Layer_1" x="0px" y="0px" viewBox="0 0 512 512" style="enable-background:new 0 0 512 512;" xml:space="preserve" width="512px" height="512px">
<g>
	<g>
		<path d="M136.222,299.623c0-4.183,1.044-8.125,2.876-11.587H103.95v183.308c0,12.835,10.405,23.24,23.24,23.24    s23.24-10.405,23.24-23.24V322.078C142.037,318.083,136.222,309.521,136.222,299.623z" fill="#F59C64"/>
	</g>
</g>
<g>
	<g>
		<path d="M78.644,264.509c-0.083-0.032-0.166-0.059-0.25-0.093l-30.538-12.148c0,0-0.422,19.255-0.422,219.075    c0,12.835,10.405,23.24,23.24,23.24s23.241-10.404,23.241-23.239V287.326C84.044,284.69,77.265,275.078,78.644,264.509z" fill="#F59C64"/>
	</g>
</g>
<g>
	<g>
		<path d="M98.671,0C76.471,0,58.534,17.995,58.534,40.137c0,22.117,17.96,40.138,40.137,40.138    c22.163,0,40.138-17.965,40.138-40.138C138.809,17.98,120.847,0,98.671,0z" fill="#F59C64"/>
	</g>
</g>
<g>
	<g>
		<path d="M178.305,167.454h-60.068c-2.291,0-4.278,1.631-4.727,3.877l-6.166,30.928c15.186,8.138,22.176,26.552,15.656,42.943    c-4.897,12.309-16.123,20.198-28.449,21.458c-0.331,2.962,1.965,5.35,4.762,5.35h60.068c2.29,0,4.278-1.632,4.727-3.879    l18.924-94.916C183.626,170.227,181.336,167.454,178.305,167.454z" fill="#F59C64"/>
	</g>
</g>
<g>
	<g>
		<path d="M274.499,139.318l-61.186,2.828l-65.479-41.373c-3.096-1.956-6.683-2.995-10.345-2.995c-16.866,0-73.741,0-90.637,0    c-25.145,0-45.704,20.456-45.83,45.6c-0.059,11.818-0.246,48.822-0.305,60.782c-0.04,7.968,4.804,15.146,12.207,18.091    l71.009,28.25c9.926,3.954,21.195-0.893,25.15-10.835c3.953-9.937-0.898-21.2-10.836-25.153l-58.735-23.367    c0.083-16.437,0.044-8.696,0.239-47.573c0-0.001,0-0.002,0-0.004c0.188-2.167,2.05-3.801,4.223-3.706    c2.173,0.095,3.883,1.886,3.883,4.061v34.424l44.39,17.659l5.545-27.809c1.936-9.716,10.534-16.769,20.444-16.769    c35.32,0,25.688,0,60.068,0c13.161,0,23.011,12.037,20.444,24.92l-0.422,2.118c5.789,1.743,11.734,2.488,17.775,2.259    c4.204-0.16,9.484-0.373,15.034-0.629c1.936-6.949,5.291-13.515,9.998-19.271c8.509-10.405,20.469-17.042,33.568-18.86    C274.613,141.09,274.546,140.207,274.499,139.318z" fill="#F59C64"/>
	</g>
</g>
<g>
	<g>
		<path d="M397.604,328.348v125.93c0,6.574,5.328,11.9,11.901,11.9s11.901-5.327,11.901-11.9v-125.93H397.604z" fill="#F59C64"/>
	</g>
</g>
<g>
	<g>
		<path d="M235.132,328.348v125.93h0c0,6.572,5.328,11.9,11.901,11.9s11.901-5.328,11.901-11.9v-125.93H235.132z" fill="#F59C64"/>
	</g>
</g>
<g>
	<g>
		<path d="M277.825,328.348v143.553h-0.001c0,12.528,10.155,22.683,22.683,22.683s22.683-10.156,22.683-22.683V328.348H277.825z" fill="#F59C64"/>
	</g>
</g>
<g>
	<g>
		<path d="M332.982,328.348v143.553h-0.001c0,12.528,10.155,22.683,22.683,22.683c12.528,0,22.683-10.156,22.683-22.683V328.348    H332.982z" fill="#F59C64"/>
	</g>
</g>
<g>
	<g>
		<path d="M172.381,324.479v169.927c0,9.716,7.876,17.592,17.592,17.592c9.716,0,17.592-7.876,17.592-17.592V324.479H172.381z" fill="#F59C64"/>
	</g>
</g>
<g>
	<g>
		<path d="M328.081,97.266c-21.636,0-39.175,17.539-39.175,39.175c0,6.894,1.787,13.367,4.913,18.994    c9.549-5.872,21.678-7.249,32.829-2.635c8.873,3.668,15.502,10.46,19.163,18.571c12.723-6.471,21.445-19.678,21.445-34.93    C367.255,114.804,349.717,97.266,328.081,97.266z" fill="#F59C64"/>
	</g>
</g>
<g>
	<g>
		<path d="M499.819,288.16c-8.018,0-62.265,0-69.805,0c8.478-3.776,12.915-13.087,10.616-21.987    c-1.944-7.527-16.794-65.036-18.702-72.425c-5.338-20.676-23.062-35.541-43.99-37.501c-5.301,13.297-15.761,23.997-28.907,29.593    c0.061,4.981-0.956,9.926-2.752,14.269l-15.798,38.204c4.257-2.071,8.979-3.336,13.969-3.588l10.722-25.937    c1.856-4.49,7.002-6.623,11.489-4.769c4.49,1.856,6.625,7,4.769,11.49l-7.925,19.171h14.428v-30.541    c0-1.891,1.406-3.487,3.282-3.725s3.636,0.955,4.109,2.787c6.003,23.25,6.516,25.235,12.6,48.797h-44.921    c-10.44,0-18.903,8.463-18.903,18.903c0,7.702,4.614,14.317,11.223,17.262h-59.836c4.326-1.925,7.893-5.444,9.792-10.039    l34.994-84.629c3.989-9.647-0.598-20.702-10.245-24.691c-9.648-3.988-20.701,0.598-24.691,10.245l-11.308,27.348l-9.331-24.608    l8.366-16.187c-1.912-2.942-3.541-6.08-4.855-9.38c-10.065,0.999-19.31,5.911-25.791,13.837    c-7.295,8.92-10.166,20.513-7.878,31.807l14.746,72.789c1.237,6.106,5.355,11.068,10.822,13.509c-14.022,0-109.033,0-109.033,0    c-6.33,0-11.463,5.132-11.463,11.463c0,6.33,5.132,11.463,11.463,11.463c13.123,0,280.179,0,291.219,0v183.32    c0,9.716,7.876,17.592,17.592,17.592s17.592-7.876,17.592-17.592V311.086h12.339c6.331,0,11.463-5.132,11.463-11.463    C511.283,293.293,506.151,288.16,499.819,288.16z" fill="#F59C64"/>
	</g>
</g>
<g>
</g>
<g>
</g>
<g>
</g>
<g>
</g>
<g>
</g>
<g>
</g>
<g>
</g>
<g>
</g>
<g>
</g>
<g>
</g>
<g>
</g>
<g>
</g>
<g>
</g>
<g>
</g>
<g>
</g>
</svg>
